<?xml version="1.0" standalone="no"?>
<!DOCTYPE svg PUBLIC "-//W3C//DTD SVG 20010904//EN"
 "http://www.w3.org/TR/2001/REC-SVG-20010904/DTD/svg10.dtd">
<svg version="1.0" xmlns="http://www.w3.org/2000/svg"
 width="100.000000pt" height="100.000000pt" viewBox="0 0 100.000000 100.000000"
 preserveAspectRatio="xMidYMid meet">
<metadata>
Created by potrace 1.16, written by Peter Selinger 2001-2019
</metadata>
<g transform="translate(0.000000,100.000000) scale(0.019531,-0.019531)"
fill="#000000" stroke="none">
<path d="M1903 5101 c-188 -65 -306 -266 -290 -494 17 -237 184 -470 472 -662
118 -79 246 -145 280 -145 34 0 162 66 280 145 410 273 569 632 418 945 -35
73 -123 159 -198 195 -49 23 -77 29 -153 33 -115 5 -194 -14 -286 -69 l-64
-39 -52 35 c-108 72 -288 97 -407 56z m262 -216 c22 -11 64 -44 94 -75 51 -53
55 -55 105 -55 50 0 54 2 106 55 68 69 117 93 201 98 103 6 166 -34 210 -132
95 -217 -62 -477 -424 -697 l-91 -56 -76 44 c-308 182 -483 409 -468 607 8 98
58 180 133 221 40 22 155 16 210 -10z"/>
<path d="M2770 3786 c-62 -18 -123 -50 -165 -88 -70 -60 -91 -101 -180 -347
-3 -8 -54 34 -144 121 -95 93 -156 144 -193 162 -209 102 -452 18 -555 -192
-26 -52 -28 -67 -28 -167 0 -104 2 -114 32 -175 24 -49 59 -92 141 -174 l110
-108 -68 -34 c-81 -41 -151 -112 -188 -192 -24 -51 -27 -69 -27 -167 0 -98 3
-116 27 -167 14 -31 45 -77 69 -102 23 -26 40 -47 38 -49 -2 -1 -30 -15 -62
-31 -78 -39 -143 -106 -181 -186 -29 -60 -31 -73 -31 -175 0 -98 3 -116 27
-167 14 -31 45 -76 67 -101 23 -24 41 -47 41 -50 0 -2 -12 -8 -27 -11 -44 -11
-127 -70 -167 -119 -101 -124 -119 -294 -47 -442 25 -49 74 -104 278 -306 254
-251 330 -313 481 -388 89 -45 251 -97 356 -116 115 -20 337 -20 452 0 250 44
484 161 670 337 488 463 547 1214 137 1751 -26 34 -167 183 -313 330 l-265
268 37 102 c20 56 69 192 109 302 71 194 73 203 73 290 -1 104 -20 165 -78
243 -40 56 -119 114 -186 138 -61 21 -184 27 -240 10z m204 -230 c57 -33 101
-116 93 -174 -5 -36 -163 -489 -176 -504 -4 -4 -74 60 -156 142 l-149 149 13
38 c97 270 105 288 143 325 66 64 149 73 232 24z m-999 -105 c27 -13 270 -250
771 -752 651 -653 737 -743 782 -818 228 -374 223 -815 -13 -1177 -66 -102
-201 -241 -294 -303 -318 -215 -704 -253 -1055 -104 -152 64 -234 128 -484
377 -214 212 -234 235 -248 283 -35 119 56 243 178 243 79 0 113 -22 255 -163
126 -124 136 -132 173 -132 72 0 122 64 106 132 -5 18 -100 121 -281 303 -151
151 -278 288 -284 303 -14 36 -14 108 0 144 36 96 160 148 256 108 24 -10 136
-114 313 -290 275 -274 277 -275 319 -275 62 0 101 41 101 106 l0 48 -419 420
c-231 232 -425 434 -430 449 -47 123 52 268 181 267 78 -1 109 -27 534 -451
453 -452 443 -445 514 -397 38 26 56 71 46 115 -5 19 -203 224 -636 658 -347
347 -634 643 -639 658 -59 157 105 317 254 248z"/>
</g>
</svg>
