<?xml version="1.0" standalone="no"?>
<!DOCTYPE svg PUBLIC "-//W3C//DTD SVG 20010904//EN"
 "http://www.w3.org/TR/2001/REC-SVG-20010904/DTD/svg10.dtd">
<svg version="1.0" xmlns="http://www.w3.org/2000/svg"
 width="100.000000pt" height="100.000000pt" viewBox="0 0 100.000000 100.000000"
 preserveAspectRatio="xMidYMid meet">
<metadata>
Created by potrace 1.16, written by Peter Selinger 2001-2019
</metadata>
<g transform="translate(0.000000,100.000000) scale(0.019531,-0.019531)"
fill="#000000" stroke="none">
<path d="M2303 5106 c-153 -49 -271 -197 -296 -370 -39 -272 200 -665 511
-840 92 -52 194 -86 257 -86 68 0 175 38 280 99 109 63 283 236 353 350 180
295 185 547 14 733 -36 38 -76 69 -120 90 -63 31 -72 33 -177 33 -102 0 -115
-2 -175 -31 -36 -17 -90 -53 -120 -81 l-55 -51 -55 51 c-30 28 -84 64 -120 81
-57 27 -77 31 -160 33 -59 2 -111 -3 -137 -11z"/>
<path d="M1999 3909 c-214 -22 -374 -222 -356 -444 10 -115 51 -183 221 -366
l145 -156 -55 -12 c-236 -47 -377 -292 -306 -528 12 -38 35 -88 51 -110 l30
-42 -50 -10 c-299 -65 -429 -413 -243 -657 l32 -41 -52 -12 c-131 -29 -233
-110 -289 -228 -58 -125 -46 -292 28 -401 34 -50 394 -440 487 -528 87 -81
224 -177 331 -231 96 -48 284 -108 396 -127 124 -21 358 -21 482 0 112 19 300
79 396 127 270 136 515 385 644 654 99 207 134 367 134 623 0 207 -11 280 -71
460 -68 203 -167 362 -349 557 l-96 102 127 293 c70 161 135 319 145 351 48
151 0 326 -119 434 -42 37 -131 79 -196 93 -144 30 -307 -28 -396 -141 -20
-25 -65 -111 -100 -190 -34 -79 -66 -150 -70 -157 -5 -10 -84 70 -254 255
-137 147 -273 292 -304 321 -96 91 -202 125 -343 111z m181 -175 c28 -15 86
-68 141 -128 52 -56 339 -367 639 -691 633 -683 647 -699 705 -786 155 -231
223 -474 212 -764 -12 -329 -133 -610 -362 -841 -225 -226 -506 -354 -835
-379 -297 -23 -649 93 -885 292 -112 94 -503 520 -531 578 -47 99 -27 221 50
298 60 60 90 72 186 72 117 0 141 -16 323 -214 82 -89 159 -168 172 -177 48
-31 115 16 101 72 -4 15 -100 127 -214 251 -390 423 -381 412 -382 512 0 76
17 125 64 178 75 85 183 113 290 77 57 -20 75 -37 390 -377 143 -154 249 -260
264 -264 36 -9 76 26 80 68 2 32 -13 51 -235 290 -605 651 -573 610 -573 729
0 107 49 188 142 234 97 49 217 30 300 -47 25 -23 207 -216 403 -429 330 -359
359 -388 389 -388 74 0 92 76 34 138 -19 20 -176 190 -348 377 -172 187 -393
426 -490 530 -97 105 -220 237 -274 295 -54 58 -107 123 -118 144 -44 85 -32
205 27 282 28 37 99 82 148 95 51 13 136 1 187 -27z m1326 -192 c53 -27 107
-88 129 -145 34 -91 22 -140 -110 -447 -65 -151 -121 -279 -125 -283 -8 -10
-390 398 -390 417 0 21 140 340 167 379 67 97 221 134 329 79z"/>
</g>
</svg>
